<svg viewBox="0 0 81 42" fill="none" xmlns="http://www.w3.org/2000/svg"><path d="M80.9467 20.7647C80.9467 32.233 71.7231 41.5293 60.3444 41.5293C48.9658 41.5293 39.7422 32.233 39.7422 20.7647C39.7422 9.29644 48.9658 0.000144958 60.3444 0.000144958C71.7231 0.000144958 80.9467 9.29644 80.9467 20.7647Z" fill="#96FF61"></path><path d="M60.3451 34.3027C54.6931 34.3027 49.6126 30.703 47.7044 25.3441C47.6266 25.1246 47.7386 24.8841 47.9574 24.8047C48.17 24.7284 48.4127 24.8392 48.4915 25.0587C50.2804 30.0842 55.0447 33.4603 60.3451 33.4603C65.6217 33.4603 70.3766 30.104 72.179 25.1089C72.2589 24.8915 72.4995 24.7775 72.7162 24.857C72.9319 24.9375 73.045 25.1779 72.9661 25.3974C71.0434 30.7239 65.9712 34.3027 60.3451 34.3027Z" fill="#1A1F28"></path><path d="M55.8943 15.6285C55.8943 17.1096 54.6996 18.3105 53.2259 18.3105C51.7533 18.3105 50.5586 17.1096 50.5586 15.6285C50.5586 14.1474 51.7533 12.9464 53.2259 12.9464C54.6996 12.9464 55.8943 14.1474 55.8943 15.6285Z" fill="#1A1F28"></path><path d="M70.1326 15.6285C70.1326 17.1096 68.9379 18.3105 67.4642 18.3105C65.9916 18.3105 64.7969 17.1096 64.7969 15.6285C64.7969 14.1474 65.9916 12.9464 67.4642 12.9464C68.9379 12.9464 70.1326 14.1474 70.1326 15.6285Z" fill="#1A1F28"></path><path d="M23.6047 7.47683C38.1671 -12.3084 58.4323 12.0267 39.591 25.181C13.4093 44.7331 33.7399 44.5993 7.61838 25.181C-11.2229 12.0267 9.04226 -12.3084 23.6047 7.47683Z" fill="#1A66FF"></path><path d="M41.2963 16.7269C41.6635 17.0813 41.6635 17.6729 41.2963 18.0272C39.4441 19.8156 33.4997 24.6738 23.6062 24.6738C13.7126 24.6738 7.76919 19.8156 5.91596 18.0272C5.54885 17.6729 5.54885 17.0813 5.91596 16.7269C7.76919 14.9385 13.7126 10.0803 23.6062 10.0803C33.4997 10.0803 39.4441 14.9385 41.2963 16.7269Z" fill="#F5F5F7"></path><path d="M23.6105 10.5071C14.0115 10.5071 8.24337 15.0727 6.2097 17.0367C6.11532 17.1276 6.06243 17.251 6.06243 17.3827C6.06243 17.5144 6.11532 17.6367 6.2097 17.7276C8.24337 19.6916 14.0115 24.2572 23.6105 24.2572C33.2096 24.2572 38.9777 19.6916 41.0114 17.7276C41.1058 17.6367 41.1587 17.5144 41.1587 17.3827C41.1587 17.251 41.1058 17.1276 41.0114 17.0367C38.9777 15.0727 33.2096 10.5071 23.6105 10.5071ZM23.6105 25.0996C13.7076 25.0996 7.73729 20.3699 5.63205 18.337C5.37071 18.0861 5.22656 17.7464 5.22656 17.3827C5.22656 17.0179 5.37071 16.6792 5.63205 16.4284C7.73729 14.3943 13.7076 9.66467 23.6105 9.66467C33.5134 9.66467 39.4838 14.3943 41.589 16.4284C41.8504 16.6803 41.9945 17.0189 41.9945 17.3827C41.9945 17.7464 41.8504 18.0861 41.589 18.337C39.4838 20.3699 33.5134 25.0996 23.6105 25.0996Z" fill="#1A1F28"></path><path d="M27.7644 17.3819C27.7644 19.6961 25.9029 21.5723 23.6068 21.5723C21.3107 21.5723 19.4492 19.6961 19.4492 17.3819C19.4492 15.0678 21.3107 13.1916 23.6068 13.1916C25.9029 13.1916 27.7644 15.0678 27.7644 17.3819Z" fill="#1A1F28"></path></svg>
