<svg width="160" height="24" fill="none" xmlns="http://www.w3.org/2000/svg"><path fill-rule="evenodd" clip-rule="evenodd" d="M15.129 8.633a8.46 8.46 0 0 0-2.78-1.868 8.754 8.754 0 0 0-3.523-.698 8.997 8.997 0 0 0-3.51.698 8.9 8.9 0 0 0-2.784 1.904 9.156 9.156 0 0 0-1.865 2.77A8.815 8.815 0 0 0 0 14.85v.057a8.615 8.615 0 0 0 .667 3.372A8.376 8.376 0 0 0 2.49 21.06a8.447 8.447 0 0 0 2.766 1.859 8.997 8.997 0 0 0 3.513.678 8.726 8.726 0 0 0 3.52-.697 8.436 8.436 0 0 0 2.8-1.904 8.803 8.803 0 0 0 1.856-2.77 8.617 8.617 0 0 0 .667-3.374v-.058a8.99 8.99 0 0 0-.648-3.39 8.81 8.81 0 0 0-1.836-2.77zm12.172-2.66c-3.738.022-7.466 2.638-7.466 7.878v9.367h3.784v-9.535c0-2.695 1.836-4.259 3.672-4.223 1.797.022 3.595 1.602 3.595 4.278v9.48h3.78v-9.55c0-4.244-3.169-7.714-7.365-7.695zM37.96 23.218h3.78V0h-3.79l.01 23.218zm7.342 0h3.781V6.43h-3.79l.01 16.787zm-.179-19.381h4.08V.187h-4.08v3.65zM83.28 8.782a7.2 7.2 0 0 0-2.484-1.979 7.653 7.653 0 0 0-3.448-.736 7.498 7.498 0 0 0-3.266.698 8.078 8.078 0 0 0-2.54 1.868 8.415 8.415 0 0 0-1.666 2.786 9.33 9.33 0 0 0-.594 3.396v.074a9.192 9.192 0 0 0 .65 3.542 8.482 8.482 0 0 0 1.797 2.75 8.183 8.183 0 0 0 2.684 1.773 8.558 8.558 0 0 0 3.337.642c1.52 0 2.836-.282 3.928-.868a8.746 8.746 0 0 0 2.82-2.28l-2.22-1.983a7.582 7.582 0 0 1-2.02 1.486 5.473 5.473 0 0 1-2.446.509 4.648 4.648 0 0 1-3.14-1.094c-.872-.733-1.409-1.788-1.612-3.165h12.128c.037-.19.037-.377.056-.566.02-.19.017-.357.017-.527a11.668 11.668 0 0 0-.5-3.449 8.933 8.933 0 0 0-1.481-2.877zm8.99-6.974h-3.781v4.619h-2.095v3.297h2.095v8.84c-.022.791.09 1.582.333 2.337.2.579.538 1.102.983 1.525.44.378.96.655 1.52.81a6.875 6.875 0 0 0 1.911.265 7.06 7.06 0 0 0 1.87-.226 6.144 6.144 0 0 0 1.534-.64v-3.149a5.007 5.007 0 0 1-2.353.585 2.234 2.234 0 0 1-1.503-.48c-.353-.34-.52-.867-.52-1.62V9.724h4.432V6.427h-4.426V1.808zm20.748 6.825a8.493 8.493 0 0 0-2.783-1.868 8.67 8.67 0 0 0-3.523-.698 9.071 9.071 0 0 0-3.522.698 8.75 8.75 0 0 0-4.617 4.673 8.875 8.875 0 0 0-.684 3.413v.057a8.616 8.616 0 0 0 .667 3.372 8.184 8.184 0 0 0 1.834 2.772 8.496 8.496 0 0 0 2.773 1.866 8.878 8.878 0 0 0 3.482.678 8.782 8.782 0 0 0 8.185-5.372 8.582 8.582 0 0 0 .669-3.37v-.058a8.976 8.976 0 0 0-.647-3.391 8.797 8.797 0 0 0-1.834-2.772zm28.267-1.47a7.206 7.206 0 0 0-2.228 3.05V6.427h-3.776v16.786h3.781v-6.381a9.842 9.842 0 0 1 .411-2.924 5.74 5.74 0 0 1 1.167-2.074 4.687 4.687 0 0 1 1.778-1.242 5.936 5.936 0 0 1 2.281-.415h.222V6.101c-1.464-.05-2.67.29-3.631 1.062h-.005zm17.424 9.081a4.334 4.334 0 0 0-1.208-1.335 7.013 7.013 0 0 0-1.633-.945c-.593-.259-1.2-.484-1.817-.677-.483-.15-.945-.3-1.389-.453a9.659 9.659 0 0 1-1.179-.508 2.932 2.932 0 0 1-.834-.604 1.145 1.145 0 0 1-.316-.792v-.057a1.463 1.463 0 0 1 .611-1.199c.408-.322.983-.48 1.706-.48a6.992 6.992 0 0 1 2.261.415c.836.313 1.638.709 2.394 1.182l1.503-2.734a10.774 10.774 0 0 0-2.899-1.393 10.49 10.49 0 0 0-3.172-.51 7.575 7.575 0 0 0-2.291.32 5.975 5.975 0 0 0-1.863 1.027c-.53.445-.962.994-1.27 1.611a4.997 4.997 0 0 0-.445 2.13v.074a4.108 4.108 0 0 0 .464 2.036c.309.532.72 1 1.208 1.377.507.384 1.071.69 1.672.904a18.06 18.06 0 0 0 1.817.602c.483.151.946.303 1.389.453.413.133.816.293 1.208.48.305.145.577.35.8.604.196.231.301.526.294.83v.055a1.531 1.531 0 0 1-.667 1.319c-.444.342-1.075.51-1.891.51a7.812 7.812 0 0 1-2.658-.527 11.548 11.548 0 0 1-2.744-1.547l-1.692 2.602a11.698 11.698 0 0 0 3.395 1.885 11.24 11.24 0 0 0 3.624.64 8.38 8.38 0 0 0 2.416-.34 5.765 5.765 0 0 0 1.95-.979c.555-.438.999-1 1.294-1.64a5.306 5.306 0 0 0 .484-2.317v-.076a3.758 3.758 0 0 0-.517-1.943h-.005zM59.733 5.974c-3.709.019-7.454 2.637-7.454 7.877v9.367h3.803v-9.535c0-2.695 1.834-4.259 3.65-4.223 1.818.036 3.598 1.602 3.598 4.278v9.48h3.781v-9.55c0-4.244-3.15-7.714-7.378-7.695zm68.949 9.951c0 2.676-1.8 4.26-3.597 4.278-1.798.02-3.673-1.527-3.673-4.22V6.446h-3.781v9.38c0 5.221 3.745 7.84 7.454 7.86 4.228.016 7.378-3.45 7.378-7.691v-9.55h-3.781v9.48z" fill="#FD9D27"/></svg>
